<svg width="80" height="80" viewBox="0 0 80 80" fill="none" xmlns="http://www.w3.org/2000/svg">
  <!-- 背景圆形 -->
  <circle cx="40" cy="40" r="38" fill="#4CAF50" stroke="#ffffff" stroke-width="2"/>
  
  <!-- 云朵图标 -->
  <path d="M25 45c-3.5 0-6.5-3-6.5-6.5s3-6.5 6.5-6.5c1-4 4.5-7 8.5-7s7.5 3 8.5 7c3.5 0 6.5 3 6.5 6.5s-3 6.5-6.5 6.5H25z" fill="#ffffff"/>
  
  <!-- 收发箭头 -->
  <g transform="translate(40, 50)">
    <!-- 向上箭头 (发) -->
    <path d="M-8 5 L-8 15 L-12 11 L-8 7 L-4 11 L-8 15" stroke="#ffffff" stroke-width="2" fill="none" stroke-linecap="round" stroke-linejoin="round"/>
    
    <!-- 向下箭头 (收) -->
    <path d="M8 -5 L8 -15 L12 -11 L8 -7 L4 -11 L8 -15" stroke="#ffffff" stroke-width="2" fill="none" stroke-linecap="round" stroke-linejoin="round"/>
  </g>
  
  <!-- 装饰性点 -->
  <circle cx="28" cy="28" r="2" fill="#ffffff" opacity="0.8"/>
  <circle cx="52" cy="28" r="2" fill="#ffffff" opacity="0.8"/>
  <circle cx="28" cy="52" r="2" fill="#ffffff" opacity="0.6"/>
  <circle cx="52" cy="52" r="2" fill="#ffffff" opacity="0.6"/>
</svg>