<?xml version="1.0" encoding="UTF-8"?>
<svg width="48px" height="48px" viewBox="0 0 48 48" version="1.1" xmlns="http://www.w3.org/2000/svg">
    <g stroke="none" stroke-width="1" fill="none" fill-rule="evenodd">
        <rect fill="#EEFBE5" x="0" y="0" width="48" height="48" rx="8"></rect>
        <g transform="translate(8.000000, 8.000000)" fill="#34C759" fill-rule="nonzero">
            <path d="M30,0 C31.1046,0 32,0.8954 32,2 L32,30 C32,31.1046 31.1046,32 30,32 L2,32 C0.8954,32 0,31.1046 0,30 L0,2 C0,0.8954 0.8954,0 2,0 L30,0 Z M28,4 L4,4 L4,28 L28,28 L28,4 Z M24,20 L8,20 L8,24 L24,24 L24,20 Z M24,14 L8,14 L8,18 L24,18 L24,14 Z M24,8 L8,8 L8,12 L24,12 L24,8 Z M22,10 L22,10 L22,10 L22,10 Z"></path>
            <path d="M19,16 C19.5523,16 20,16.4477 20,17 C20,17.5523 19.5523,18 19,18 L11,18 C10.4477,18 10,17.5523 10,17 C10,16.4477 10.4477,16 11,16 L19,16 Z M19,10 C19.5523,10 20,10.4477 20,11 C20,11.5523 19.5523,12 19,12 L11,12 C10.4477,12 10,11.5523 10,11 C10,10.4477 10.4477,10 11,10 L19,10 Z M19,22 C19.5523,22 20,22.4477 20,23 C20,23.5523 19.5523,24 19,24 L11,24 C10.4477,24 10,23.5523 10,23 C10,22.4477 10.4477,22 11,22 L19,22 Z"></path>
        </g>
    </g>
</svg> 